<?xml version="1.0" encoding="utf-8"?>
<!-- Generator: Adobe Illustrator 21.0.0, SVG Export Plug-In . SVG Version: 6.00 Build 0)  -->
<svg version="1.1" id="Zeplin" image-rendering="optimizeSpeed"
	 xmlns="http://www.w3.org/2000/svg" xmlns:xlink="http://www.w3.org/1999/xlink" x="0px" y="0px" viewBox="0 0 1024 1024"
	 style="enable-background:new 0 0 1024 1024;" xml:space="preserve">
    <g>
	<polygon id="path-9_2_" fill="#FFFFFF" points="389.8,382.3 403.1,379.2 468.1,658.7 454.9,661.8 	"/>
</g>
	<g>
	<polygon id="path-7_1_" fill="#FFFFFF" points="430.9,435.8 444.8,432.6 496,652.7 482.2,656 	"/>
</g>
	<g id="g">
	<g id="shape10">
		<path id="path7" fill="#FFFFFF" d="M966.1,378.5c-1-3.4-2-6.9-3.1-10.5c-1.6-5.2-3.4-10.5-5.3-15.9c-6.5-18.2-14.2-36.1-23.2-53.6
			c-3.8-7.4-8-15-12.3-22.4c-20.3-34.5-45.8-67.2-76.4-97.7C773.2,105.7,688.7,61.7,592.2,46.2c-16.2-2.6-32.8-4.4-50-5.3
			c-9.7-0.6-19.9-0.9-30.1-0.9c-9.3,0-18.6,0.2-27.9,0.8c-118.4,6.1-220.3,52-305.8,137.5C86.1,270.5,40,381.7,40,512
			c0,0.8,0,1.5,0,2.1c0.5,129.5,46.6,240.1,138.2,331.7c56.7,56.7,120.6,95.9,191.1,117.6c36.8,11.2,74.8,17.8,114.8,19.9
			c0.1,0,0.2,0,0.4,0c8.5,0.5,16.6,0.7,24.5,0.7c1.2,0,2.1,0,3,0c10.3,0,20.5-0.3,30.1-0.8c2.5-0.2,4.8-0.3,6.9-0.5
			c20.2-1.5,39.9-4,58.7-7.7c8-1.5,15.8-3.3,23.4-5.1c80.8-20.3,152.1-61.6,214.6-124.1c48.6-48.6,84.4-102.5,107.4-161.8
			c18.5-47.6,28.6-98.8,30.5-153.5c0.2-6,0.3-12.2,0.3-18.5c0-0.6,0-1.3,0-2c0-0.3,0-0.6,0-1c-0.1-20.5-1.3-40.5-3.8-60.3
			c-2.3-19.2-5.8-38.1-10.5-56.7C968.7,387.7,967.4,383,966.1,378.5z"/>
	</g>
</g>
	<path fill="none;" style="enable-background:new" d="M0,0"/>
	<g id="background-circle-shadow">
	<g id="shape">
		<path id="path" fill-opacity="0.13" d="M983.7,390.5c-1.1-3.6-2.2-7.1-3.5-10.7c-3.2-9.5-6.8-19-10.6-28.5c-5.7-13.9-12.2-27.5-19.4-40.8
			c-4-7.6-8.3-15.1-12.9-22.4c-19.5-31.7-43.4-61.6-71.5-89.8C773.7,106.1,662.3,60,532,60s-241.6,46.1-333.8,138.2
			c-88,88-133.9,193.4-137.9,315.9c-0.2,6.1-0.3,11.9-0.3,17.8c0,130.3,46.1,241.7,138.2,333.8S401.6,1004,532,1004
			s241.7-46,333.8-138.2C916.5,815,953.3,758.4,976.2,696c18.5-50.8,27.8-105.5,27.8-164c0-44.9-5.5-87.5-16.4-128
			C986.3,399.5,985,395,983.7,390.5z"/>
	</g>
</g>
	<g id="background-circle">
	<g id="shape2">
		<path id="path1" fill="#E5E5E5" d="M966.1,378.5c-1-3.4-2-6.9-3.1-10.5c-1.6-5.2-3.4-10.5-5.3-15.9c-6.5-18.2-14.2-36.1-23.2-53.6
			c-3.8-7.4-8-15-12.3-22.4c-20.3-34.5-45.8-67.2-76.4-97.7C773.2,105.7,688.7,61.7,592.2,46.2c-16.2-2.6-32.8-4.4-50-5.3
			c-9.7-0.6-19.9-0.9-30.1-0.9c-9.3,0-18.6,0.2-27.9,0.8c-118.4,6.1-220.3,52-305.8,137.5C86.1,270.5,40,381.7,40,512
			c0,0.8,0,1.5,0,2.1c0.5,129.5,46.6,240.1,138.2,331.7c56.7,56.7,120.6,95.9,191.1,117.6c36.8,11.2,74.8,17.8,114.8,19.9
			c0.1,0,0.2,0,0.4,0c8.5,0.5,16.6,0.7,24.5,0.7c1.2,0,2.1,0,3,0c10.3,0,20.5-0.3,30.1-0.8c2.5-0.2,4.8-0.3,6.9-0.5
			c20.2-1.5,39.9-4,58.7-7.7c8-1.5,15.8-3.3,23.4-5.1c80.8-20.3,152.1-61.6,214.6-124.1c48.6-48.6,84.4-102.5,107.4-161.8
			c18.5-47.6,28.6-98.8,30.5-153.5c0.2-6,0.3-12.2,0.3-18.5c0-0.6,0-1.3,0-2c0-0.3,0-0.6,0-1c-0.1-20.5-1.3-40.5-3.8-60.3
			c-2.3-19.2-5.8-38.1-10.5-56.7C968.7,387.7,967.4,383,966.1,378.5z"/>
	</g>
</g>
	<g id="masked">
	<g id="object-shadow">
		<g id="shape4">
			<path id="path2" fill="#FFFFFF" d="M381.9,136.8c-11.9-8.1-25-12.1-39.5-12.1c-19.6,0-36.3,6.9-50.1,20.7
				c-13.8,13.9-20.6,30.6-20.6,50.1l0.2,5.9c-10.7,5-19.3,12.5-25.8,22.6c-6.6,10.1-9.9,21.2-9.9,33.4c0,17,6.1,31.6,18.1,43.9
				c12.2,12,26.8,18.1,43.8,18.1h150.4c14.7,0,27.2-5.2,37.6-15.6c10.3-10.3,15.5-22.8,15.5-37.4c0-12.5-3.9-23.5-11.6-33.2
				c-7.8-9.6-17.5-15.8-29.4-18.5c3.8-5.8,5.7-12.2,5.7-19.1c0-9.8-3.5-18.1-10.4-25c-7-7-15.3-10.4-25.1-10.4
				c-8.9,0-16.5,2.9-23,8.6C402.4,155.5,393.8,144.9,381.9,136.8z M799.3,754.7c-7-17.2-18.3-31.2-34-41.9
				c-15.6-10.6-33-15.8-52.1-15.8c-25.8,0-47.8,9-66,27.2c-18.1,18.3-27.2,40.3-27.2,66l0.2,7.9c-14.1,6.5-25.4,16.4-34,29.8
				c-8.7,13.2-13,27.9-13,43.9c0,22.5,8,41.7,23.9,57.8c16,15.9,35.3,23.9,57.7,23.9h198c19.4,0,35.9-6.9,49.6-20.7
				c13.5-13.5,20.3-30,20.3-49.3c0-16.4-5.1-31-15.3-43.7c-10.2-12.6-23.1-20.8-38.7-24.4c5-7.6,7.5-16,7.5-25.2
				c0-12.8-4.5-23.8-13.6-32.9c-9.2-9.2-20.2-13.8-33.1-13.8C818,743.4,807.8,747.2,799.3,754.7z M794.7,268
				c-13.7,0-25.4,4.8-35,14.5c-9.6,9.6-14.4,21.3-14.4,34.9l0.2,4.1c-7.5,3.5-13.5,8.7-18,15.8c-4.6,7.1-6.9,14.8-6.9,23.3
				c0,11.9,4.2,22,12.7,30.5c8.5,8.4,18.7,12.6,30.5,12.6h104.8c10.2,0,19-3.6,26.2-10.9c7.2-7.1,10.8-15.9,10.8-26.1
				c0-8.7-2.7-16.4-8-23.1c-5.4-6.7-12.2-11-20.5-12.9c2.7-4,4-8.5,4-13.4c0-6.8-2.4-12.6-7.2-17.4c-4.9-4.9-10.7-7.2-17.5-7.2
				c-6.2,0-11.5,1.9-16,5.9c-3.8-9.1-9.8-16.5-18-22.1C814,270.9,804.8,268,794.7,268z"/>
		</g>
	</g>
</g>
	<g id="Calque.__202">
	<g id="shape12">
		<path id="path8" fill="#F69833" d="M188.4,575.3l-16.5-80.1L62.2,518l71.7,70l0.5-1.4L188.4,575.3z"/>
		<path id="path9" fill="#FDBD39" d="M134.4,586.5l-0.5,1.4l-38,92.6l109.7-22.7l-17.1-82.5L134.4,586.5z"/>
	</g>
</g>
	<g id="object">
	<g id="shape16">
		<path id="path10" fill="#FECF33" d="M861.9,414.1c2.5,5.4,4.6,11.1,6.2,17c-15-61.3-60.5-107.1-136.8-137.3
			c-78.8-31.1-167.2-36.6-265.2-16.3C368,297.8,288.9,337.9,229,397.7c-58,58-81.6,118.1-71,180.2c-0.9-6-1.2-12-0.9-18
			c1.4-41.2,28.1-82.3,79.9-123.5c62.1-49.2,142.2-84,240.4-104.2c98-20.3,185.4-20.2,262,0.3C803.4,349.6,844.2,376.8,861.9,414.1z
			"/>
		<path id="path11" fill="#FDBD39" d="M868.2,431c-1.6-5.9-3.7-11.5-6.2-17c-17.7-37.2-58.5-64.5-122.5-81.6
			c-76.5-20.5-163.9-20.6-262-0.3c-98.1,20.3-178.2,55-240.4,104.2c-51.9,41.1-78.5,82.3-79.9,123.5c-0.2,6,0.1,12,0.9,18l1.1,6.1
			c0.1,0.1,0.1,0.2,0.1,0.3l0.5,2l710.2-147l-0.4-2c0-0.1,0-0.2,0-0.2L868.2,431z"/>
		<path id="path12" fill="#F69833" d="M870.8,443.2l-0.8-3.9l-710.2,147l0.9,3.8c12.4,46.2,55.3,79.1,128.8,98.8
			c76.6,20.6,163.9,20.7,262,0.4c98-20.3,178.1-55.1,240.3-104.3C851.4,537.8,877.7,490.5,870.8,443.2z"/>
		<path id="path13" fill="#F0670B" d="M873.3,468.9c-0.2-8.5-1-17-2.5-25.6c7,47.3-19.4,94.5-79,141.8c-62.2,49.2-142.2,84-240.3,104.3
			s-185.5,20.2-262-0.4C216,669.3,173,636.3,160.7,590.2c2.1,8.5,4.7,16.7,7.9,24.6c20.1,49.2,63.1,86.9,128.8,112.9
			c78.8,31.2,167.2,36.7,265.4,16.4c98-20.3,177-60.4,237-120.3C849.8,573.7,874.3,522.1,873.3,468.9z"/>
	</g>
</g>
	<path fill="#F0670B" style="enable-background:new" d="M0,0"/>
	<g id="分组_1_" transform="translate(98.000000, 66.000000)">
	<g id="Fill-1-Clipped_1_" transform="translate(24.000000, 61.620818)">
		<g id="分组">
			<g id="Fill-1-Clipped">
				<g id="path-9">
				</g>
				<path id="Fill-1" fill="#EC6519" d="M315.9,302.6c3.8-0.9,7.6,1.3,8.4,4.8l48.3,207.3c0.8,3.5-1.6,7.1-5.4,8s-7.6-1.3-8.4-4.8
					l-48.3-207.3C309.6,307.1,312,303.5,315.9,302.6"/>
			</g>
		</g>
	</g>
		<path id="Fill-3" fill="#E71F1B" d="M298.6,310.2l131.8-30.7c3.8-0.9,7.7,1.4,8.5,5.2c0.9,3.8-1.5,7.5-5.4,8.4l-131.8,30.7
		c-3.8,0.9-7.7-1.4-8.5-5.2C292.4,314.8,294.8,311,298.6,310.2"/>
		<g id="Fill-5-Clipped">
		<g>
			<g id="path-11">
			</g>
			<path id="Fill-5" fill="#E71F1B" d="M298.4,310.8c3.7-0.9,7.2,1.1,8,4.3l62.3,267.8c0.8,3.2-1.6,6.6-5.3,7.4s-7.2-1.1-8-4.3
				l-62.3-267.8C292.4,314.9,294.8,311.6,298.4,310.8"/>
		</g>
	</g>
		<path id="Fill-7" fill="#486AAD" d="M332.8,334.2l181-42.1c3.8-0.9,7.5,1.5,8.4,5.2s-1.5,7.5-5.3,8.4l-181,42.1
		c-3.8,0.9-7.5-1.5-8.4-5.2S329,335.1,332.8,334.2"/>
		<path id="Fill-9" fill="#486AAD" d="M413.9,443.1L509,295.3c2.1-3.3,6.6-4.4,10-2.3c3.4,2,4.4,6.4,2.3,9.7l-95.1,147.8
		c-2.1,3.3-6.6,4.4-10,2.3C412.7,450.8,411.7,446.4,413.9,443.1"/>
		<path id="Fill-11" fill="#486AAD" d="M424,440.9l147.7,88c3.4,2,4.4,6.3,2.2,9.6l-0.1,0.2c-2.1,3.3-6.6,4.3-9.9,2.3l-147.7-88
		c-3.4-2-4.4-6.3-2.2-9.6l0.1-0.2C416.1,439.9,420.6,438.9,424,440.9"/>
		<path id="Fill-13" fill="#8DA7D6" d="M390.2,415.3l52.9-81.5c2.2-3.4,6.8-4.4,10.2-2.4l0,0c3.5,2.1,4.5,6.5,2.3,9.9l-52.9,81.5
		c-2.2,3.4-6.8,4.4-10.2,2.4l0,0C389.1,423.1,388,418.7,390.2,415.3"/>
		<path id="Fill-15" fill="#9AB8D6" d="M477.5,438.4l83.4,49.7c3.5,2.1,4.5,6.5,2.3,9.9l0,0c-2.2,3.4-6.8,4.4-10.2,2.4l-83.4-49.7
		c-3.5-2.1-4.5-6.5-2.3-9.9l0,0C469.5,437.4,474.1,436.3,477.5,438.4"/>
</g>
</svg>
