<svg id="图层_1" data-name="图层 1" xmlns="http://www.w3.org/2000/svg" viewBox="0 0 132.24 132.24"><defs><style>.cls-1{fill:#fff;}.cls-2{fill:#ec6519;}.cls-3{fill:#e71f1b;}.cls-4{fill:#486aad;}.cls-5{fill:#8da7d6;}.cls-6{fill:#9ab8d6;}</style></defs><title>tropy-icon-light</title><circle class="cls-1" cx="66.12" cy="66.12" r="66.12"/><g id="图层_1-2" data-name="图层 1-2"><path class="cls-2" d="M40.26,40.55h0a2.12,2.12,0,0,1,2.12,2.13v68.81a2.13,2.13,0,0,1-2.12,2.13h0a2.13,2.13,0,0,1-2.13-2.13V42.68A2.13,2.13,0,0,1,40.26,40.55Z"/><path class="cls-3" d="M31.73,17.78H75.36a2.3,2.3,0,0,1,2.3,2.3h0a2.3,2.3,0,0,1-2.3,2.3H31.73a2.3,2.3,0,0,1-2.3-2.3h0A2.3,2.3,0,0,1,31.73,17.78Z"/><path class="cls-3" d="M31.44,17.78h0a2,2,0,0,1,2,2v91.82a2,2,0,0,1-2,2h0a2,2,0,0,1-2-2V19.79A2,2,0,0,1,31.44,17.78Z"/><path class="cls-4" d="M40.74,28.19h59.81a2.26,2.26,0,0,1,2.26,2.25h0a2.26,2.26,0,0,1-2.26,2.26H40.74a2.26,2.26,0,0,1-2.26-2.26h0A2.26,2.26,0,0,1,40.74,28.19Z"/><path class="cls-4" d="M58.14,69.53,98.8,28.87a2.34,2.34,0,0,1,3.32,0h0a2.35,2.35,0,0,1,0,3.32L61.46,72.85a2.34,2.34,0,0,1-3.32,0h0A2.34,2.34,0,0,1,58.14,69.53Z"/><rect class="cls-4" x="77.24" y="60.54" width="4.69" height="60.69" rx="2.31" transform="translate(-40.95 82.89) rotate(-45)"/><rect class="cls-5" x="47.72" y="46.99" width="36.43" height="4.77" rx="2.38" transform="translate(-15.6 61.09) rotate(-45)"/><rect class="cls-6" x="85.37" y="67.93" width="4.77" height="36.43" rx="2.38" transform="translate(-35.21 87.28) rotate(-45)"/></g></svg>